<?xml version="1.0" standalone="no"?>
<!DOCTYPE svg PUBLIC "-//W3C//DTD SVG 20010904//EN"
 "http://www.w3.org/TR/2001/REC-SVG-20010904/DTD/svg10.dtd">
<svg version="1.0" xmlns="http://www.w3.org/2000/svg"
 width="4000.000000pt" height="1000.000000pt" viewBox="0 0 4000.000000 1000.000000"
 preserveAspectRatio="xMidYMid meet">

<g transform="translate(0.000000,1000.000000) scale(0.100000,-0.100000)"
fill="#000000" stroke="none">
<path d="M100 5162 l0 -3662 470 0 470 0 2 2495 3 2495 325 -342 c179 -188
379 -399 445 -468 66 -69 334 -350 595 -625 261 -275 526 -554 590 -620 64
-66 327 -343 585 -615 258 -272 521 -549 585 -615 117 -122 288 -302 785 -825
154 -162 329 -347 390 -410 121 -126 643 -675 718 -755 l47 -50 0 3688 0 3687
-470 0 -470 0 -2 -2534 -3 -2534 -370 391 c-203 215 -620 654 -924 976 -305
322 -746 789 -980 1036 -234 248 -473 500 -531 560 -97 101 -584 616 -1779
1880 -250 264 -460 487 -467 495 -12 12 -14 -567 -14 -3648z"/>
<path d="M35720 6763 c-492 -1121 -1081 -2465 -1311 -2988 -229 -522 -546
-1245 -704 -1605 -158 -360 -289 -658 -292 -663 -2 -4 216 -7 485 -7 l488 0
394 900 394 900 1455 -2 1455 -3 396 -895 396 -895 492 -3 491 -2 -37 83 c-20
46 -748 1688 -1617 3650 -869 1961 -1582 3567 -1585 3567 -4 0 -408 -917 -900
-2037z m1450 -1403 c300 -677 546 -1237 548 -1245 3 -13 -133 -15 -1092 -15
-603 0 -1096 3 -1096 7 0 14 1083 2483 1089 2483 3 0 251 -554 551 -1230z"/>
<path d="M8160 5020 l0 -3520 3435 0 3435 0 0 3520 0 3520 -3435 0 -3435 0 0
-3520z m5940 0 l0 -2570 -2505 0 -2505 0 0 2570 0 2570 2505 0 2505 0 0 -2570z"/>
<path d="M16460 8060 l0 -480 815 0 815 0 0 -3040 0 -3040 460 0 460 0 0 3040
0 3040 820 0 820 0 0 480 0 480 -2095 0 -2095 0 0 -480z"/>
<path d="M22180 5020 l0 -3520 1900 0 1900 0 0 480 0 480 -1435 0 -1435 0 0
1210 0 1210 1085 0 1085 0 0 485 0 485 -1085 0 -1085 0 0 865 0 865 1435 0
1435 0 0 480 0 480 -1900 0 -1900 0 0 -3520z"/>
<path d="M27070 8525 c0 -2 126 -296 279 -652 481 -1119 2413 -5606 2628
-6103 112 -261 207 -478 211 -482 4 -4 179 385 389 865 210 480 877 2006 1483
3392 606 1386 1146 2622 1201 2746 54 124 99 229 99 232 0 4 -224 7 -498 7
l-498 0 -919 -2112 c-505 -1162 -990 -2278 -1078 -2480 -88 -202 -163 -366
-166 -363 -4 2 -488 1118 -1076 2479 l-1068 2476 -494 0 c-271 0 -493 -2 -493
-5z"/>
</g>
</svg>
